<svg width="121" height="40" viewBox="0 0 121 40" fill="none" xmlns="http://www.w3.org/2000/svg">
<g clip-path="url(#clip0_1_139)">
<path d="M0.436377 34.2917H5.3981V13.1698H0.436377V34.2917ZM2.90739 10.4C4.46153 10.4 5.677 9.20445 5.677 7.71008C5.677 6.19531 4.46153 5 2.90739 5C1.37294 5 0.157471 6.19555 0.157471 7.71008C0.157471 9.20445 1.37294 10.4 2.90739 10.4ZM21.9175 5.05953C13.5288 5.05953 8.26802 10.7785 8.26802 19.925C8.26802 29.0712 13.5283 34.7703 21.9178 34.7703C30.2866 34.7703 35.5474 29.0712 35.5474 19.925C35.5474 10.7785 30.2868 5.05953 21.9175 5.05953ZM21.9175 9.44352C27.0386 9.44352 30.3065 13.5085 30.3065 19.9248C30.3065 26.3211 27.0386 30.3863 21.9178 30.3863C16.7768 30.3863 13.5288 26.3213 13.5288 19.9248C13.5288 13.5085 16.7768 9.44352 21.9175 9.44352ZM37.6406 26.2016C37.8597 31.5022 42.2036 34.7698 48.8191 34.7698C55.7735 34.7698 60.1575 31.3426 60.1575 25.8826C60.1575 21.5984 57.6867 19.1874 51.8482 17.8524L48.5404 17.0954C45.0133 16.2584 43.5588 15.1426 43.5588 13.2296C43.5588 10.8383 45.7507 9.2443 48.9986 9.2443C52.2865 9.2443 54.5381 10.8584 54.7774 13.5484H59.6791C59.5596 8.48703 55.375 5.05953 49.0385 5.05953C42.7816 5.05953 38.3381 8.50672 38.3381 13.6081C38.3381 17.713 40.8487 20.2634 46.1489 21.4791L49.8752 22.3557C53.5017 23.2128 54.9764 24.4084 54.9764 26.4807C54.9764 28.8718 52.5651 30.5855 49.0983 30.5855C45.5913 30.5855 42.9412 28.8519 42.6225 26.2016H37.6406Z" fill="white" fill-opacity="0.8"/>
</g>
<path d="M80.2366 5.50889L96.6299 3.25111V19.0889H80.2344V5.51111L80.2366 5.50889ZM80.2366 34.4911L96.6299 36.7511V21.1067H80.2344L80.2366 34.4911ZM98.4322 36.9911L120.237 40V21.1067H98.4322V36.9911ZM98.4322 3.00889V19.0889H120.237V0L98.4322 3.00889Z" fill="white" fill-opacity="0.8"/>
<defs>
<clipPath id="clip0_1_139">
<rect width="60.2344" height="30" fill="white" transform="translate(0 5)"/>
</clipPath>
</defs>
</svg>
