<svg width="42" height="42" viewBox="0 0 42 42" fill="none" xmlns="http://www.w3.org/2000/svg">
<circle cx="21" cy="21" r="20" stroke="white" stroke-opacity="0.8" stroke-width="2"/>
<g clip-path="url(#clip0_4016_866)">
<path fill-rule="evenodd" clip-rule="evenodd" d="M17.6877 15.3334V14.453C17.6877 13.5902 18.0304 12.7628 18.6405 12.1527C19.2506 11.5427 20.078 11.2 20.9407 11.2C21.8035 11.2 22.6309 11.5427 23.241 12.1527C23.851 12.7628 24.1937 13.5902 24.1937 14.453V15.3334C25.3102 15.3673 25.9937 15.487 26.5151 15.9199C27.2377 16.5201 27.4285 17.5351 27.8093 19.5658L28.46 23.0357C28.9952 25.8914 29.2624 27.3193 28.4825 28.2596C27.7018 29.2 26.2488 29.2 23.3436 29.2H18.5378C15.6318 29.2 14.1797 29.2 13.3989 28.2596C12.6182 27.3193 12.8871 25.8914 13.4215 23.0357L14.0721 19.5658C14.4538 17.536 14.6438 16.5201 15.3664 15.9199C15.8877 15.487 16.5713 15.3673 17.6877 15.3334ZM18.9889 14.453C18.9889 13.9353 19.1946 13.4389 19.5606 13.0728C19.9266 12.7068 20.4231 12.5012 20.9407 12.5012C21.4584 12.5012 21.9548 12.7068 22.3209 13.0728C22.6869 13.4389 22.8925 13.9353 22.8925 14.453V15.3204H18.9889V14.453Z" fill="white" fill-opacity="0.8"/>
</g>
<defs>
<clipPath id="clip0_4016_866">
<rect width="20.5333" height="20.5333" fill="white" transform="translate(11.2 11.2)"/>
</clipPath>
</defs>
</svg>
