<svg width="136" height="40" viewBox="0 0 136 40" fill="none" xmlns="http://www.w3.org/2000/svg">
<rect x="0.5" y="0.5" width="39" height="39" rx="7.5" stroke="#737373"/>
<path fill-rule="evenodd" clip-rule="evenodd" d="M23.021 11.343C23.53 11.256 24.099 11.227 24.635 11.318C25.5898 11.4792 26.4744 11.9226 27.175 12.591C27.631 12.601 28.08 12.511 28.477 12.383C28.8607 12.2578 29.2291 12.0898 29.575 11.882L29.584 11.876C29.728 11.78 29.9008 11.7368 30.073 11.7537C30.2452 11.7706 30.4063 11.8465 30.5289 11.9685C30.6516 12.0906 30.7283 12.2513 30.746 12.4234C30.7637 12.5956 30.7213 12.7685 30.626 12.913C30.419 13.228 30.13 13.79 29.807 14.42L29.652 14.721C29.467 15.081 29.277 15.445 29.1 15.757C28.989 15.953 28.87 16.152 28.75 16.324V16.598C28.7623 18.2366 28.4481 19.8613 27.8258 21.3772C27.2034 22.8931 26.2854 24.2699 25.1252 25.4271C23.965 26.5844 22.586 27.499 21.0685 28.1176C19.5511 28.7362 17.9256 29.0463 16.287 29.03C13.9125 29.0321 11.5879 28.348 9.59304 27.06C9.45045 26.9677 9.34338 26.8299 9.28935 26.6689C9.23531 26.5079 9.23751 26.3333 9.29558 26.1737C9.35365 26.0142 9.46415 25.879 9.60902 25.7904C9.75388 25.7018 9.92452 25.665 10.093 25.686C11.4709 25.8507 12.8674 25.6284 14.126 25.044C13.512 24.7648 12.9628 24.3608 12.5134 23.8577C12.064 23.3547 11.7244 22.7635 11.516 22.122C11.4763 21.9991 11.469 21.8682 11.4948 21.7417C11.5205 21.6152 11.5785 21.4975 11.663 21.4L11.673 21.39C11.1654 20.9377 10.7586 20.3838 10.479 19.7641C10.1994 19.1444 10.0532 18.4728 10.05 17.793V17.741C10.05 17.5763 10.1041 17.4162 10.204 17.2854C10.304 17.1545 10.4442 17.0602 10.603 17.017C10.2644 16.3413 10.0887 15.5957 10.09 14.84C10.0895 13.9831 10.3136 13.1411 10.74 12.398C10.8006 12.2925 10.886 12.2033 10.9887 12.1381C11.0914 12.073 11.2085 12.0338 11.3297 12.0239C11.451 12.0141 11.5728 12.0339 11.6847 12.0816C11.7966 12.1294 11.8952 12.2036 11.972 12.298C13.7212 14.4529 16.2272 15.8586 18.978 16.228C18.9542 15.3282 19.1811 14.4394 19.6336 13.6613C20.0861 12.8832 20.7462 12.2463 21.54 11.822C21.942 11.608 22.474 11.437 23.022 11.343H23.021ZM11.743 18.891C11.9372 19.4375 12.27 19.9242 12.7087 20.3036C13.1475 20.6829 13.6772 20.9418 14.246 21.055C14.4099 21.0876 14.5582 21.1741 14.6674 21.3006C14.7765 21.4271 14.8403 21.5865 14.8486 21.7534C14.8568 21.9203 14.8091 22.0852 14.713 22.2219C14.6169 22.3586 14.4779 22.4593 14.318 22.508C14.046 22.591 13.767 22.648 13.484 22.681C13.7913 23.0773 14.1834 23.3998 14.6316 23.6247C15.0798 23.8497 15.5726 23.9714 16.074 23.981C16.2287 23.9839 16.3787 24.0345 16.5034 24.126C16.6281 24.2175 16.7215 24.3453 16.7708 24.4919C16.8201 24.6385 16.8228 24.7968 16.7787 24.945C16.7345 25.0933 16.6455 25.2242 16.524 25.32C15.4813 26.1404 14.2695 26.7193 12.976 27.015C14.0469 27.3577 15.1647 27.5315 16.289 27.53H16.298C17.738 27.5452 19.1666 27.2732 20.5004 26.73C21.8341 26.1868 23.0462 25.3833 24.0658 24.3663C25.0855 23.3494 25.8922 22.1394 26.439 20.8072C26.9857 19.4749 27.2614 18.047 27.25 16.607V16.072C27.2499 15.8899 27.316 15.7139 27.436 15.577C27.506 15.498 27.626 15.316 27.796 15.017C27.956 14.735 28.134 14.395 28.319 14.036L28.352 13.97C27.8297 14.0875 27.2918 14.1203 26.759 14.067C26.5789 14.0473 26.4119 13.9632 26.289 13.83C25.7861 13.2846 25.1165 12.9217 24.385 12.798C24.0161 12.7458 23.6412 12.7542 23.275 12.823C22.9181 12.8785 22.5716 12.9874 22.247 13.146C21.5927 13.4956 21.0729 14.0525 20.7692 14.7294C20.4655 15.4062 20.3951 16.1648 20.569 16.886C20.5964 16.9994 20.5969 17.1176 20.5706 17.2313C20.5443 17.3449 20.4918 17.4508 20.4173 17.5407C20.3428 17.6305 20.2485 17.7017 20.1416 17.7486C20.0348 17.7955 19.9185 17.8169 19.802 17.811C16.7296 17.6556 13.8249 16.3627 11.653 14.184C11.6108 14.4004 11.5897 14.6204 11.59 14.841V14.843C11.5889 15.3937 11.724 15.9362 11.9833 16.4221C12.2425 16.908 12.6179 17.3223 13.076 17.628C13.2106 17.7185 13.3121 17.8502 13.3655 18.0033C13.4189 18.1565 13.4212 18.3228 13.372 18.4773C13.3229 18.6319 13.2251 18.7663 13.0931 18.8605C12.9611 18.9548 12.8022 19.0037 12.64 19C12.3382 18.9916 12.0379 18.9558 11.743 18.891Z" fill="white"/>
<rect x="48.5" y="0.5" width="39" height="39" rx="7.5" stroke="#737373"/>
<g clip-path="url(#clip0_2540_703)">
<path fill-rule="evenodd" clip-rule="evenodd" d="M66.0564 11.288C67.0408 10.3034 68.376 9.75016 69.7684 9.75H72.4684C72.6673 9.75 72.858 9.82902 72.9987 9.96967C73.1393 10.1103 73.2184 10.3011 73.2184 10.5V14.1C73.2184 14.2989 73.1393 14.4897 72.9987 14.6303C72.858 14.771 72.6673 14.85 72.4684 14.85H69.7684C69.7487 14.85 69.7292 14.8539 69.711 14.8614C69.6928 14.869 69.6762 14.88 69.6623 14.8939C69.6484 14.9079 69.6373 14.9244 69.6298 14.9426C69.6222 14.9608 69.6184 14.9803 69.6184 15V16.95H72.4684C72.5824 16.9499 72.6949 16.9759 72.7974 17.0258C72.8999 17.0758 72.9896 17.1485 73.0598 17.2383C73.13 17.3282 73.1788 17.4328 73.2025 17.5444C73.2261 17.6559 73.224 17.7714 73.1964 17.882L72.2964 21.482C72.2558 21.6443 72.162 21.7884 72.0301 21.8913C71.8982 21.9942 71.7357 22.0501 71.5684 22.05H69.6184V28.5C69.6184 28.6989 69.5393 28.8897 69.3987 29.0303C69.258 29.171 69.0673 29.25 68.8684 29.25H65.2684C65.0694 29.25 64.8787 29.171 64.738 29.0303C64.5974 28.8897 64.5184 28.6989 64.5184 28.5V22.05H62.5684C62.3694 22.05 62.1787 21.971 62.038 21.8303C61.8974 21.6897 61.8184 21.4989 61.8184 21.3V17.7C61.8184 17.6015 61.8378 17.504 61.8754 17.413C61.9131 17.322 61.9684 17.2393 62.038 17.1697C62.1077 17.1 62.1904 17.0448 62.2813 17.0071C62.3723 16.9694 62.4699 16.95 62.5684 16.95H64.5184V15C64.5185 13.6077 65.0718 12.2724 66.0564 11.288ZM69.7684 11.25C68.7738 11.25 67.82 11.6451 67.1167 12.3483C66.4134 13.0516 66.0184 14.0054 66.0184 15V17.7C66.0184 17.8989 65.9393 18.0897 65.7987 18.2303C65.658 18.371 65.4673 18.45 65.2684 18.45H63.3184V20.55H65.2684C65.4673 20.55 65.658 20.629 65.7987 20.7697C65.9393 20.9103 66.0184 21.1011 66.0184 21.3V27.75H68.1184V21.3C68.1184 21.1011 68.1974 20.9103 68.338 20.7697C68.4787 20.629 68.6694 20.55 68.8684 20.55H70.9824L71.5074 18.45H68.8684C68.6694 18.45 68.4787 18.371 68.338 18.2303C68.1974 18.0897 68.1184 17.8989 68.1184 17.7V15C68.1184 14.5624 68.2922 14.1427 68.6016 13.8333C68.9111 13.5238 69.3308 13.35 69.7684 13.35H71.7184V11.25H69.7684Z" fill="white"/>
</g>
<rect x="96.5" y="0.5" width="39" height="39" rx="7.5" stroke="#737373"/>
<g clip-path="url(#clip1_2540_703)">
<path d="M115.568 23.5C116.629 23.5 117.647 23.0786 118.397 22.3284C119.147 21.5783 119.568 20.5609 119.568 19.5C119.568 18.4391 119.147 17.4217 118.397 16.6716C117.647 15.9214 116.629 15.5 115.568 15.5C114.507 15.5 113.49 15.9214 112.74 16.6716C111.99 17.4217 111.568 18.4391 111.568 19.5C111.568 20.5609 111.99 21.5783 112.74 22.3284C113.49 23.0786 114.507 23.5 115.568 23.5Z" stroke="white" stroke-width="1.5" stroke-linecap="round" stroke-linejoin="round"/>
<path d="M106.568 23.5V15.5C106.568 14.1739 107.095 12.9021 108.033 11.9645C108.971 11.0268 110.242 10.5 111.568 10.5H119.568C120.894 10.5 122.166 11.0268 123.104 11.9645C124.042 12.9021 124.568 14.1739 124.568 15.5V23.5C124.568 24.8261 124.042 26.0979 123.104 27.0355C122.166 27.9732 120.894 28.5 119.568 28.5H111.568C110.242 28.5 108.971 27.9732 108.033 27.0355C107.095 26.0979 106.568 24.8261 106.568 23.5Z" stroke="white" stroke-width="1.5"/>
<path d="M121.068 14.01L121.078 13.999" stroke="white" stroke-width="1.5" stroke-linecap="round" stroke-linejoin="round"/>
</g>
<defs>
<clipPath id="clip0_2540_703">
<rect width="24" height="24" fill="white" transform="translate(56 8)"/>
</clipPath>
<clipPath id="clip1_2540_703">
<rect width="24" height="24" fill="white" transform="translate(104 8)"/>
</clipPath>
</defs>
</svg>
