<svg width="118" height="22" viewBox="0 0 118 22" fill="none" xmlns="http://www.w3.org/2000/svg">
<path d="M11 0L13.4697 7.60081H21.4616L14.996 12.2984L17.4656 19.8992L11 15.2016L4.53436 19.8992L7.00402 12.2984L0.538379 7.60081H8.53035L11 0Z" fill="#E58E27"/>
<path d="M35 0L37.4697 7.60081H45.4616L38.996 12.2984L41.4656 19.8992L35 15.2016L28.5344 19.8992L31.004 12.2984L24.5384 7.60081H32.5303L35 0Z" fill="#E58E27"/>
<path d="M59 0L61.4697 7.60081H69.4616L62.996 12.2984L65.4656 19.8992L59 15.2016L52.5344 19.8992L55.004 12.2984L48.5384 7.60081H56.5303L59 0Z" fill="#E58E27"/>
<path d="M83 1.61804L84.9941 7.75532L85.1064 8.10081H85.4697H91.9228L86.7021 11.8939L86.4082 12.1074L86.5205 12.4529L88.5146 18.5902L83.2939 14.7971L83 14.5836L82.7061 14.7971L77.4854 18.5902L79.4795 12.4529L79.5918 12.1074L79.2979 11.8939L74.0772 8.10081H80.5303H80.8936L81.0059 7.75532L83 1.61804Z" stroke="#E58E27"/>
<path d="M107 1.61804L108.994 7.75532L109.106 8.10081H109.47H115.923L110.702 11.8939L110.408 12.1074L110.52 12.4529L112.515 18.5902L107.294 14.7971L107 14.5836L106.706 14.7971L101.485 18.5902L103.48 12.4529L103.592 12.1074L103.298 11.8939L98.0772 8.10081H104.53H104.894L105.006 7.75532L107 1.61804Z" stroke="#E58E27"/>
</svg>
